<svg xmlns="http://www.w3.org/2000/svg" viewBox="0 0 192 192" width="192" height="192">
  <rect width="192" height="192" rx="32" fill="#F0F4F7"/>
  <path d="M96 46 C124.28 46 147 68.72 147 97 C147 103.6 144.35 109.68 140 114.47 L77.53 52 C70.32 48.65 64.4 46 57 46 C51.4 46 46 51.4 46 57 C46 64.4 48.65 70.32 52 77.53 L114.47 140 C109.68 144.35 103.6 147 97 147 C68.72 147 46 124.28 46 96 S68.72 46 96 46 Z" fill="#A0D2EB"/>
  <path d="M135 77.53 C138.35 70.32 141 64.4 141 57 C141 51.4 135.6 46 129 46 C121.6 46 115.68 48.65 110.47 52 L48 114.47 C52.35 109.68 58.4 107 65 107 C72.28 107 78.6 109.72 83 114 L135 77.53 Z" fill="#90EE90"/>
</svg>
