<svg xmlns="http://www.w3.org/2000/svg" viewBox="0 0 512 512" width="512" height="512">
  <rect width="512" height="512" rx="85" fill="#F0F4F7"/>
  <path d="M256 122.67 C331.41 122.67 392 183.26 392 258.67 C392 276.27 384.93 292.48 373.33 305.25 L206.75 138.67 C187.52 129.73 161.07 122.67 152 122.67 C137.07 122.67 122.67 137.07 122.67 152 C122.67 161.07 129.73 187.52 138.67 206.75 L305.25 373.33 C292.48 384.93 276.27 392 258.67 392 C183.26 392 122.67 331.41 122.67 256 C122.67 180.59 183.26 122.67 256 122.67 Z" fill="#A0D2EB"/>
  <path d="M360 206.75 C368.93 187.52 376 161.07 376 152 C376 137.07 361.6 122.67 344 122.67 C324.27 122.67 308.48 129.73 294.59 138.67 L128 305.25 C139.6 292.48 155.73 285.33 173.33 285.33 C192.56 285.33 209.6 292.48 221.33 304 L360 206.75 Z" fill="#90EE90"/>
</svg>
